<svg width="21" height="26" viewBox="0 0 21 26" fill="none" xmlns="http://www.w3.org/2000/svg">
<path d="M14.4038 4.70312C15.1538 3.79688 15.685 2.54688 15.685 1.29688C15.685 1.125 15.6694 0.953125 15.6381 0.8125C14.4194 0.859375 12.935 1.625 12.06 2.65625C11.3569 3.45312 10.7163 4.70312 10.7163 5.96875C10.7163 6.15625 10.7475 6.34375 10.7631 6.40625C10.8413 6.42188 10.9663 6.4375 11.0913 6.4375C12.2006 6.4375 13.5913 5.70312 14.4038 4.70312ZM15.2631 6.70312C13.4194 6.70312 11.9194 7.82812 10.9663 7.82812C9.95063 7.82812 8.60688 6.76562 6.9975 6.76562C3.95063 6.76562 0.8725 9.29688 0.8725 14.0312C0.8725 17 2.01313 20.1094 3.41938 22.125C4.63813 23.8281 5.70063 25.2344 7.21625 25.2344C8.73188 25.2344 9.38813 24.2188 11.2631 24.2188C13.1694 24.2188 13.6069 25.2031 15.2631 25.2031C16.9194 25.2031 18.0288 23.6875 19.06 22.1875C20.2319 20.4688 20.7163 18.8125 20.7319 18.7188C20.6381 18.6875 17.4663 17.4062 17.4663 13.7812C17.4663 10.6406 19.9663 9.25 20.1069 9.14062C18.4663 6.76562 15.9663 6.70312 15.2631 6.70312Z" fill="white"/>
</svg>
