<svg width="28" height="28" viewBox="0 0 28 28" fill="none" xmlns="http://www.w3.org/2000/svg">
<g filter="url(#filter0_dd)">
<path d="M24.9565 1.82605H3.04349C2.37114 1.82605 1.8261 2.37109 1.8261 3.04344V24.9565C1.8261 25.6288 2.37114 26.1739 3.04349 26.1739H24.9565C25.6289 26.1739 26.1739 25.6288 26.1739 24.9565V3.04344C26.1739 2.37109 25.6289 1.82605 24.9565 1.82605Z" fill="#232426"/>
</g>
<path d="M24.9565 1.82605H3.04349C2.37114 1.82605 1.8261 2.37109 1.8261 3.04344V24.9565C1.8261 25.6288 2.37114 26.1739 3.04349 26.1739H24.9565C25.6289 26.1739 26.1739 25.6288 26.1739 24.9565V3.04344C26.1739 2.37109 25.6289 1.82605 24.9565 1.82605Z" fill="white"/>
<path fill-rule="evenodd" clip-rule="evenodd" d="M19.2591 14.1245C19.2591 13.736 19.2243 13.3625 19.1595 13.0039H14V15.123H16.9483C16.8213 15.8078 16.4353 16.388 15.8551 16.7764V18.151H17.6256C18.6615 17.1973 19.2591 15.7928 19.2591 14.1245Z" fill="#4285F4"/>
<path fill-rule="evenodd" clip-rule="evenodd" d="M14 19.4783C15.4791 19.4783 16.7192 18.9877 17.6256 18.1511L15.8551 16.7765C15.3646 17.1052 14.7371 17.2994 14 17.2994C12.5732 17.2994 11.3654 16.3358 10.9347 15.0409H9.10442V16.4603C10.0058 18.2507 11.8585 19.4783 14 19.4783Z" fill="#0D7B12"/>
<path fill-rule="evenodd" clip-rule="evenodd" d="M10.9347 15.0409C10.8251 14.7122 10.7629 14.3611 10.7629 14C10.7629 13.639 10.8251 13.2879 10.9347 12.9592V11.5398H9.10445C8.73342 12.2794 8.52176 13.116 8.52176 14C8.52176 14.884 8.73342 15.7207 9.10445 16.4603L10.9347 15.0409Z" fill="#F1C644"/>
<path fill-rule="evenodd" clip-rule="evenodd" d="M14 10.7006C14.8043 10.7006 15.5264 10.977 16.0942 11.5198L17.6654 9.94857C16.7167 9.06457 15.4766 8.52173 14 8.52173C11.8585 8.52173 10.0058 9.74936 9.10442 11.5398L10.9347 12.9591C11.3654 11.6643 12.5732 10.7006 14 10.7006Z" fill="#FF3B30"/>
<defs>
<filter id="filter0_dd" x="-0.173904" y="-0.17395" width="28.3478" height="30.3478" filterUnits="userSpaceOnUse" color-interpolation-filters="sRGB">
<feFlood flood-opacity="0" result="BackgroundImageFix"/>
<feColorMatrix in="SourceAlpha" type="matrix" values="0 0 0 0 0 0 0 0 0 0 0 0 0 0 0 0 0 0 127 0"/>
<feOffset dy="2"/>
<feGaussianBlur stdDeviation="1"/>
<feColorMatrix type="matrix" values="0 0 0 0 0 0 0 0 0 0 0 0 0 0 0 0 0 0 0.24 0"/>
<feBlend mode="normal" in2="BackgroundImageFix" result="effect1_dropShadow"/>
<feColorMatrix in="SourceAlpha" type="matrix" values="0 0 0 0 0 0 0 0 0 0 0 0 0 0 0 0 0 0 127 0"/>
<feOffset/>
<feGaussianBlur stdDeviation="1"/>
<feColorMatrix type="matrix" values="0 0 0 0 0 0 0 0 0 0 0 0 0 0 0 0 0 0 0.12 0"/>
<feBlend mode="normal" in2="effect1_dropShadow" result="effect2_dropShadow"/>
<feBlend mode="normal" in="SourceGraphic" in2="effect2_dropShadow" result="shape"/>
</filter>
</defs>
</svg>
