<!--?xml version="1.0" encoding="utf-8"?-->
<!-- Generator: Adobe Illustrator 18.1.1, SVG Export Plug-In . SVG Version: 6.00 Build 0)  -->

<svg version="1.1" id="_x32_" xmlns="http://www.w3.org/2000/svg" xmlns:xlink="http://www.w3.org/1999/xlink" x="0px" y="0px" viewBox="0 0 512 512" style="width: 256px; height: 256px; opacity: 1;" xml:space="preserve">
<style type="text/css">
	.st0{fill:#4B4B4B;}
</style>
<g>
	<path class="st0" d="M388.024,166.34c24.963-24.963,9.687-93.384-48.878-74.36c-2.29,0.735-4.52,1.672-6.664,2.772
		c-4.074,10.08-10.236,19.261-18.142,26.896c4.044,8.185,6.155,17.173,6.155,26.524c0,15.046-5.564,29.304-15.503,40.262
		c1.342,4.393,2.033,8.995,2.033,13.612c0,13.142-6.925,22.636-12.489,30.248c-0.855,1.175-1.721,2.349-2.528,3.524
		c-1.327,1.903-2.464,4.11-3.445,6.564h-0.662H275.78c1.595-5.026,3.635-9.627,6.326-13.463
		c5.765-8.266,12.838-16.027,12.838-26.873c0-6.036-1.539-11.708-4.271-16.645c10.832-8.787,17.756-22.212,17.756-37.228
		c0-10.943-3.665-21.023-9.835-29.089c16.648-11.902,27.505-31.386,27.505-53.427C326.1,29.408,296.695,0,260.44,0
		c-36.274,0-65.668,29.408-65.668,65.656c0,22.041,10.858,41.525,27.51,53.427c-6.163,8.066-9.828,18.146-9.828,29.089
		c0,15.017,6.924,28.442,17.733,37.228c-2.717,4.937-4.27,10.609-4.27,16.645c0,11.723,9.608,18.748,14.798,28.315
		c1.858,3.464,3.345,7.546,4.56,12.021h-12.567c-0.762-2.342-1.617-4.461-2.598-6.274c-1.249-2.298-3.078-4.706-5.003-7.256
		c-5.007-6.616-11.24-14.852-11.24-26.806c0-4.617,0.699-9.218,2.026-13.612c-9.939-10.958-15.488-25.216-15.488-40.262
		c0-9.352,2.096-18.34,6.155-26.524c-13.37-12.875-21.755-30.211-23.498-48.736c-2.085-1.026-4.23-1.903-6.445-2.624
		c-62.218-20.191-78.439,52.49-51.918,79c25.904,25.914,53.625,19.268,54.881,18.956c-1.044,0.387-20.45,7.902-13.912,30.011
		c8.039,27.141,39.582,18.518,39.582,18.518c-8.352,5.01-7.193,19.477,3.557,32.04c-4.1,1.546-8.52,3.412-13.096,5.702
		c-12.113,6.074-25.342,15.076-35.712,28.479c-5.17,6.69-9.601,14.496-12.708,23.446c-3.108,8.95-4.876,19.016-4.876,30.189
		c-0.008,15.916,2.836,29.312,7.63,40.567c3.591,8.43,8.244,15.641,13.418,21.811c7.76,9.277,16.618,16.28,24.892,22.212
		c8.274,5.926,15.998,10.846,21.588,15.514c5.174,4.32,9.192,8.416,12.34,12.303c4.731,5.843,7.567,11.203,9.515,16.489
		c1.944,5.293,2.988,10.57,3.846,16.176c0.77,5.01,1.836,9.292,3.249,12.994c1.06,2.795,2.316,5.263,3.806,7.449
		c2.215,3.256,5.032,5.858,8.196,7.523c3.148,1.672,6.516,2.349,9.493,2.334c2.65,0.008,5.594-0.513,8.437-1.814
		c2.126-0.966,4.167-2.364,5.966-4.11c2.702-2.632,4.858-5.992,6.538-9.999c1.688-4.029,2.936-8.742,3.802-14.376
		c0.572-3.74,1.223-7.33,2.175-10.884c1.427-5.316,3.475-10.519,7.047-16.087c3.572-5.561,8.717-11.515,16.477-17.998
		c4.97-4.14,11.626-8.511,18.856-13.574c5.427-3.806,11.173-8.029,16.778-13.024c8.397-7.478,16.492-16.764,22.388-28.821
		c5.909-12.058,9.522-26.777,9.508-44.686c0-9.931-1.398-18.993-3.895-27.163c-4.356-14.326-12.073-25.826-20.982-34.776
		c-6.683-6.72-14.028-12.043-21.25-16.28c-5.906-3.464-11.715-6.185-17.075-8.333c3.72-8.72,2.731-16.808-2.959-20.205
		c0,0,29.68,8.096,37.247-17.44c6.022-20.294-11.202-27.52-12.983-28.219C338.666,184.731,364.164,190.203,388.024,166.34z
		 M255.912,52.876c0-2.498,2.026-4.527,4.528-4.527c2.498,0,4.523,2.029,4.523,4.527v169.656c0,2.498-2.026,4.52-4.523,4.52
		c-2.502,0-4.528-2.022-4.528-4.52V52.876z M317.938,271.188c10.307,5.293,20.967,12.875,28.895,23.364
		c3.98,5.248,7.307,11.225,9.664,18.146c2.364,6.928,3.758,14.801,3.769,23.929c-0.011,13.805-2.412,24.584-6.189,33.483
		c-2.84,6.661-6.468,12.288-10.645,17.291c-6.262,7.486-13.797,13.559-21.547,19.112c-7.757,5.561-15.678,10.548-22.64,16.325
		c-5.966,4.966-10.835,9.888-14.812,14.794c-5.97,7.344-9.876,14.652-12.444,21.647c-2.576,7.003-3.814,13.626-4.743,19.685
		c-0.61,4.022-1.435,7.084-2.282,9.3c-0.628,1.672-1.279,2.854-1.828,3.664c-0.84,1.22-1.398,1.561-1.721,1.747
		c-0.327,0.156-0.539,0.223-1.026,0.23c-0.435-0.008-0.654-0.059-0.922-0.179c-0.2-0.097-0.46-0.238-0.869-0.632
		c-0.588-0.58-1.516-1.762-2.472-4.036c-0.951-2.26-1.907-5.576-2.591-10.095c-0.62-4.044-1.382-8.326-2.583-12.816
		c-1.792-6.728-4.617-13.909-9.304-21.194c-4.679-7.293-11.17-14.66-20.12-22.116c-6.185-5.144-13.132-9.642-20.048-14.496
		c-5.182-3.642-10.338-7.448-15.128-11.715c-7.182-6.416-13.526-13.797-18.173-23.275c-4.624-9.486-7.653-21.194-7.668-36.724
		c0.008-8.244,1.153-15.462,3.108-21.885c3.431-11.218,9.348-20.071,16.511-27.289c5.367-5.412,11.444-9.843,17.574-13.44
		c9.184-5.39,18.48-8.869,25.405-10.936c3.46-1.033,6.326-1.724,8.288-2.148c0.981-0.208,1.736-0.357,2.223-0.446
		c0.015,0,0.023,0,0.03-0.008h26.74h26.736c1.569,0.29,5.981,1.168,11.888,3.018C304.426,265.173,311.083,267.671,317.938,271.188z" style="fill: rgb(75, 75, 75);"></path>
</g>
</svg>
